<?xml version="1.0" encoding="utf-8"?>
<!-- Generated by IcoMoon.io -->
<!DOCTYPE svg PUBLIC "-//W3C//DTD SVG 1.1//EN" "http://www.w3.org/Graphics/SVG/1.1/DTD/svg11.dtd">
<svg version="1.1" xmlns="http://www.w3.org/2000/svg" xmlns:xlink="http://www.w3.org/1999/xlink" width="512" height="512" viewBox="0 0 512 512">
<g>
</g>
	<path d="M88.678 425.001c0 0 0 1.7 0 3.399-5.049 5.058-16.855 5.058-28.703-3.399-13.517-6.738-20.306-16.875-15.216-23.664 0-1.639 3.389-3.379 8.438-3.379-23.654-30.402-25.354-72.663-1.69-104.755l135.209-182.548 27.023 18.617 47.339-57.487 82.791 67.615-45.609 57.467 28.702 20.275-141.947 180.818c-21.986 28.743-62.535 38.902-96.338 27.044v0zM299.94 281.344v79.421c0 43.961 35.533 79.462 77.742 79.462h20.286c43.94 0 79.442-35.502 79.442-79.462v-79.421h-177.469zM256.010 223.918c-1.69-1.731-3.379-1.731-3.379 0l-106.475 136.837c-1.69 1.741-1.69 3.42 0 5.12v0c1.669 1.68 27.075 18.565 28.733 16.855l107.294-138.158c1.71 0.010-24.474-20.654-26.173-20.654v0 0zM274.586 168.1l10.137 8.478 32.123-40.591-8.407-6.718-33.853 38.83zM235.725 141.087l8.489 6.758 33.741-38.84-8.397-8.499-33.833 40.581z" fill="rgb(152, 135, 239)" />
	<path d="M153.232 372.941l113.449-146.596 8.93 7.649-113.439 146.585z" fill="dark" />
</svg>
