<?xml version="1.0" standalone="no"?>
<!DOCTYPE svg PUBLIC "-//W3C//DTD SVG 20010904//EN"
 "http://www.w3.org/TR/2001/REC-SVG-20010904/DTD/svg10.dtd">
<svg version="1.0" xmlns="http://www.w3.org/2000/svg"
 width="1225.000000pt" height="1280.000000pt" viewBox="0 0 1225.000000 1280.000000"
 preserveAspectRatio="xMidYMid meet">
<metadata>
Created by potrace 1.15, written by Peter Selinger 2001-2017
</metadata>
<g transform="translate(0.000000,1280.000000) scale(0.100000,-0.100000)"
fill="#000000" stroke="none">
<path d="M6251 12556 l-243 -243 -131 -7 c-849 -43 -1644 -244 -2393 -606
-1566 -755 -2764 -2171 -3239 -3830 -171 -596 -240 -1091 -240 -1720 0 -423
20 -671 86 -1050 77 -450 208 -902 378 -1311 33 -79 57 -145 53 -147 -4 -2
-122 -70 -262 -151 l-255 -148 0 -93 0 -93 385 -102 c211 -57 386 -108 388
-114 9 -27 256 -389 347 -507 431 -564 930 -1031 1505 -1409 756 -498 1572
-811 2485 -955 299 -47 548 -65 920 -65 330 0 466 8 745 41 1641 197 3177
1083 4174 2408 41 53 64 76 75 73 9 -3 176 -97 371 -210 195 -113 356 -205
357 -203 1 1 -22 92 -51 201 -30 110 -89 330 -131 488 l-77 288 95 192 c365
732 568 1454 639 2277 17 193 17 763 0 960 -125 1467 -730 2801 -1737 3829
-246 251 -429 412 -706 621 -864 651 -1920 1074 -2989 1198 l-65 7 -3 313 -2
312 -118 0 -117 0 -244 -244z m86 -3328 l393 -393 0 312 c0 171 3 314 8 316 4
3 84 -14 177 -38 1385 -344 2403 -1466 2614 -2880 48 -319 46 -695 -5 -1035
-46 -301 -150 -647 -273 -906 l-49 -102 -48 -14 c-27 -8 -268 -72 -536 -143
-269 -72 -488 -133 -488 -136 0 -3 120 -74 268 -159 147 -84 269 -155 271
-156 8 -7 -177 -199 -287 -298 -159 -142 -261 -221 -432 -335 -1020 -675
-2315 -765 -3416 -236 -375 180 -665 385 -960 679 -157 158 -284 307 -386 454
l-51 74 113 422 c62 231 127 476 145 543 l33 123 -41 -24 c-23 -14 -147 -86
-276 -160 -129 -75 -235 -135 -237 -134 -7 8 -60 192 -89 308 -34 138 -65 307
-86 485 -19 154 -16 581 5 750 54 432 163 798 351 1170 471 934 1345 1612
2365 1834 165 36 379 67 475 70 l50 1 392 -392z"/>
</g>
</svg>
